<svg width="32" height="32" viewBox="0 0 32 32" fill="none" xmlns="http://www.w3.org/2000/svg">
<path d="M16 29.3337C23.3637 29.3337 29.3333 26.6475 29.3333 23.3337C29.3333 21.6449 27.7827 20.1189 25.2872 19.0287C23.7644 21.8231 21.4423 24.2317 18.4927 25.4923C16.9072 26.1699 15.0928 26.1699 13.5073 25.4923C10.5577 24.2317 8.23555 21.8231 6.71278 19.0287C4.21727 20.1189 2.66667 21.6449 2.66667 23.3337C2.66667 26.6475 8.6362 29.3337 16 29.3337Z" fill="#A9CECB"/>
<path fill-rule="evenodd" clip-rule="evenodd" d="M6.66667 11.3529C6.66667 6.55561 10.8454 2.66667 16 2.66667C21.1547 2.66667 25.3333 6.55561 25.3333 11.3529C25.3333 16.1125 22.3544 21.6665 17.7068 23.6528C16.6233 24.1157 15.3767 24.1157 14.2932 23.6528C9.64555 21.6665 6.66667 16.1125 6.66667 11.3529ZM16 14.6667C17.4728 14.6667 18.6667 13.4728 18.6667 12C18.6667 10.5272 17.4728 9.33334 16 9.33334C14.5272 9.33334 13.3333 10.5272 13.3333 12C13.3333 13.4728 14.5272 14.6667 16 14.6667Z" fill="#A9CECB"/>
</svg>
