<svg width="31" height="28" viewBox="0 0 31 28" fill="none" xmlns="http://www.w3.org/2000/svg">
<path d="M8.66086 14.3018C10.6508 14.3018 12.2639 12.6887 12.2639 10.6988C12.2639 8.70885 10.6508 7.0957 8.66086 7.0957C6.67095 7.0957 5.0578 8.70885 5.0578 10.6988C5.0578 12.6887 6.67095 14.3018 8.66086 14.3018Z" fill="#C10505"/>
<path d="M31 16.2877V27.1098H28.2999L28.248 26.8557C27.6583 23.9784 25.1267 21.9126 22.1896 21.9126H9.20881C6.27178 21.9126 3.74013 23.9784 3.15042 26.8557L3.09858 27.1098H0.398438V1.79189C0.398438 1.15538 0.913984 0.639832 1.5505 0.639832C2.18701 0.639832 2.70256 1.15538 2.70256 1.79189V16.2877H14.1288V8.11381C14.1288 5.78881 16.3775 4.12625 18.6002 4.80812L28.3359 7.79412C29.7371 8.22326 30.7156 9.49052 30.7768 10.9544L31 16.2877Z" fill="#C10505"/>
</svg>
