<svg width="30" height="30" viewBox="0 0 30 30" fill="none" xmlns="http://www.w3.org/2000/svg">
<path d="M13.2 1.1592V7.8H12V1.2C12 0.868804 11.7312 0.600004 11.4 0.600004C11.0688 0.600004 10.8 0.868804 10.8 1.2V7.8H9.6V1.1784C9.6 0.406204 8.4 0.432604 8.4 1.1586V7.8H7.2V1.206C7.2 0.388204 6 0.418204 6 1.1736V9.8568C6 11.109 7.2 11.9346 8.4 11.9346V27.6C8.4 30 12 30 12 27.6V11.9352C13.2 11.9352 14.4 10.938 14.4 9.999V1.1784C14.4 0.413404 13.2 0.442804 13.2 1.1592ZM18.6 3V18H19.8V27.6C19.8 30 24 30 24 27.6V3C24 3.9816e-06 18.6 3.9816e-06 18.6 3Z" fill="#A9CECB"/>
</svg>
